HIERARCHY
ROOT Hips
{
    OFFSET   0.000000   0.000000   0.000000
    CHANNELS 6 Xposition Yposition Zposition Zrotation Xrotation Yrotation
    JOINT Chest
    {
        OFFSET   0.000000   8.007230   0.000000
        CHANNELS 3 Zrotation Xrotation Yrotation
        JOINT Chest2
        {
            OFFSET   0.000000  22.077100   0.000000
            CHANNELS 3 Zrotation Xrotation Yrotation
            JOINT Neck
            {
                OFFSET   0.000000  23.254700   0.000000
                CHANNELS 3 Zrotation Xrotation Yrotation
                JOINT Head
                {
                    OFFSET   0.000010  14.370000   1.956610
                    CHANNELS 3 Zrotation Xrotation Yrotation
                    End Site
                    {
                        OFFSET   0.000000  19.566000   0.000000
                    }
                }
            }
            JOINT LeftCollar
            {
                OFFSET   3.911900  19.017000  -0.467063
                CHANNELS 3 Zrotation Xrotation Yrotation
                JOINT LeftShoulder
                {
                    OFFSET  10.383700   0.000000   0.000000
                    CHANNELS 3 Zrotation Xrotation Yrotation
                    JOINT LeftElbow
                    {
                        OFFSET  26.662100   0.001671   0.000522
                        CHANNELS 3 Zrotation Xrotation Yrotation
                        JOINT LeftWrist
                        {
                            OFFSET  28.869000   0.000037  -0.000114
                            CHANNELS 3 Zrotation Xrotation Yrotation
                            JOINT LeftFinger0
                            {
                                OFFSET   2.044650  -2.323450   3.252850
                                CHANNELS 3 Zrotation Xrotation Yrotation
                                JOINT LeftFinger01
                                {
                                    OFFSET   3.088140   0.000000   0.000000
                                    CHANNELS 3 Zrotation Xrotation Yrotation
                                    JOINT LeftFinger02
                                    {
                                        OFFSET   2.639460   0.000000   0.000000
                                        CHANNELS 3 Zrotation Xrotation Yrotation
                                        End Site
                                        {
                                            OFFSET   2.582190   0.000000   0.000000
                                        }
                                    }
                                }
                            }
                            JOINT LeftFinger1
                            {
                                OFFSET   8.364480   0.000000   3.252850
                                CHANNELS 3 Zrotation Xrotation Yrotation
                                JOINT LeftFinger11
                                {
                                    OFFSET   4.646930   0.000000   0.000000
                                    CHANNELS 3 Zrotation Xrotation Yrotation
                                    JOINT LeftFinger12
                                    {
                                        OFFSET   2.323470   0.000000   0.000000
                                        CHANNELS 3 Zrotation Xrotation Yrotation
                                        End Site
                                        {
                                            OFFSET   2.273050   0.000000   0.000000
                                        }
                                    }
                                }
                            }
                            JOINT LeftFinger2
                            {
                                OFFSET   8.364490   0.000016   1.078090
                                CHANNELS 3 Zrotation Xrotation Yrotation
                                JOINT LeftFinger21
                                {
                                    OFFSET   5.111620   0.000000   0.000000
                                    CHANNELS 3 Zrotation Xrotation Yrotation
                                    JOINT LeftFinger22
                                    {
                                        OFFSET   2.788150   0.000013   0.000000
                                        CHANNELS 3 Zrotation Xrotation Yrotation
                                        End Site
                                        {
                                            OFFSET   2.727660   0.000000   0.000000
                                        }
                                    }
                                }
                            }
                            JOINT LeftFinger3
                            {
                                OFFSET   7.899780   0.000016  -1.078090
                                CHANNELS 3 Zrotation Xrotation Yrotation
                                JOINT LeftFinger31
                                {
                                    OFFSET   4.646930   0.000000   0.000000
                                    CHANNELS 3 Zrotation Xrotation Yrotation
                                    JOINT LeftFinger32
                                    {
                                        OFFSET   2.323470   0.000000   0.000000
                                        CHANNELS 3 Zrotation Xrotation Yrotation
                                        End Site
                                        {
                                            OFFSET   2.273050   0.000000   0.000000
                                        }
                                    }
                                }
                            }
                            JOINT LeftFinger4
                            {
                                OFFSET   7.435080   0.000000  -3.252850
                                CHANNELS 3 Zrotation Xrotation Yrotation
                                JOINT LeftFinger41
                                {
                                    OFFSET   3.717550   0.000000   0.000000
                                    CHANNELS 3 Zrotation Xrotation Yrotation
                                    JOINT LeftFinger42
                                    {
                                        OFFSET   1.858760   0.000000   0.000000
                                        CHANNELS 3 Zrotation Xrotation Yrotation
                                        End Site
                                        {
                                            OFFSET   1.818440   0.000000   0.000000
                                        }
                                    }
                                }
                            }
                        }
                    }
                }
            }
            JOINT RightCollar
            {
                OFFSET  -3.911900  19.017000  -0.467064
                CHANNELS 3 Zrotation Xrotation Yrotation
                JOINT RightShoulder
                {
                    OFFSET -10.383700   0.000000   0.000000
                    CHANNELS 3 Zrotation Xrotation Yrotation
                    JOINT RightElbow
                    {
                        OFFSET -26.662100   0.001633   0.000260
                        CHANNELS 3 Zrotation Xrotation Yrotation
                        JOINT RightWrist
                        {
                            OFFSET -28.869000  -0.000045  -0.000080
                            CHANNELS 3 Zrotation Xrotation Yrotation
                            JOINT RightFinger0
                            {
                                OFFSET  -2.044660  -2.323490   3.252850
                                CHANNELS 3 Zrotation Xrotation Yrotation
                                JOINT RightFinger01
                                {
                                    OFFSET  -3.088140   0.000000   0.000000
                                    CHANNELS 3 Zrotation Xrotation Yrotation
                                    JOINT RightFinger02
                                    {
                                        OFFSET  -2.639450   0.000000   0.000000
                                        CHANNELS 3 Zrotation Xrotation Yrotation
                                        End Site
                                        {
                                            OFFSET  -2.582190   0.000000   0.000000
                                        }
                                    }
                                }
                            }
                            JOINT RightFinger1
                            {
                                OFFSET  -8.364480   0.000000   3.252850
                                CHANNELS 3 Zrotation Xrotation Yrotation
                                JOINT RightFinger11
                                {
                                    OFFSET  -4.646920   0.000000   0.000000
                                    CHANNELS 3 Zrotation Xrotation Yrotation
                                    JOINT RightFinger12
                                    {
                                        OFFSET  -2.323470   0.000000   0.000000
                                        CHANNELS 3 Zrotation Xrotation Yrotation
                                        End Site
                                        {
                                            OFFSET  -2.273050   0.000000   0.000000
                                        }
                                    }
                                }
                            }
                            JOINT RightFinger2
                            {
                                OFFSET  -8.364480   0.000000   1.078090
                                CHANNELS 3 Zrotation Xrotation Yrotation
                                JOINT RightFinger21
                                {
                                    OFFSET  -5.111610   0.000000   0.000000
                                    CHANNELS 3 Zrotation Xrotation Yrotation
                                    JOINT RightFinger22
                                    {
                                        OFFSET  -2.788160   0.000000   0.000000
                                        CHANNELS 3 Zrotation Xrotation Yrotation
                                        End Site
                                        {
                                            OFFSET  -2.727660   0.000000   0.000000
                                        }
                                    }
                                }
                            }
                            JOINT RightFinger3
                            {
                                OFFSET  -7.899780   0.000000  -1.078090
                                CHANNELS 3 Zrotation Xrotation Yrotation
                                JOINT RightFinger31
                                {
                                    OFFSET  -4.646930   0.000000   0.000000
                                    CHANNELS 3 Zrotation Xrotation Yrotation
                                    JOINT RightFinger32
                                    {
                                        OFFSET  -2.323470   0.000000   0.000000
                                        CHANNELS 3 Zrotation Xrotation Yrotation
                                        End Site
                                        {
                                            OFFSET  -2.273050   0.000000   0.000000
                                        }
                                    }
                                }
                            }
                            JOINT RightFinger4
                            {
                                OFFSET  -7.435090   0.000000  -3.252850
                                CHANNELS 3 Zrotation Xrotation Yrotation
                                JOINT RightFinger41
                                {
                                    OFFSET  -3.717550   0.000000   0.000000
                                    CHANNELS 3 Zrotation Xrotation Yrotation
                                    JOINT RightFinger42
                                    {
                                        OFFSET  -1.858760   0.000000   0.000000
                                        CHANNELS 3 Zrotation Xrotation Yrotation
                                        End Site
                                        {
                                            OFFSET  -1.818440   0.000000   0.000000
                                        }
                                    }
                                }
                            }
                        }
                    }
                }
            }
        }
    }
    JOINT LeftHip
    {
        OFFSET   9.782990   0.000000   0.000000
        CHANNELS 3 Zrotation Xrotation Yrotation
        JOINT LeftKnee
        {
            OFFSET  -0.000063 -41.789100   0.001657
            CHANNELS 3 Zrotation Xrotation Yrotation
            JOINT LeftAnkle
            {
                OFFSET   0.000078 -41.133200  -0.000113
                CHANNELS 3 Zrotation Xrotation Yrotation
                JOINT LeftToe
                {
                    OFFSET   0.000000  -6.358970  14.674500
                    CHANNELS 3 Zrotation Xrotation Yrotation
                    End Site
                    {
                        OFFSET   0.000000   0.000000   3.913200
                    }
                }
            }
        }
    }
    JOINT RightHip
    {
        OFFSET  -9.782990   0.000000   0.000000
        CHANNELS 3 Zrotation Xrotation Yrotation
        JOINT RightKnee
        {
            OFFSET   0.000053 -41.789200   0.000277
            CHANNELS 3 Zrotation Xrotation Yrotation
            JOINT RightAnkle
            {
                OFFSET   0.000030 -41.133200  -0.000150
                CHANNELS 3 Zrotation Xrotation Yrotation
                JOINT RightToe
                {
                    OFFSET   0.000000  -6.358960  14.674500
                    CHANNELS 3 Zrotation Xrotation Yrotation
                    End Site
                    {
                        OFFSET   0.000000   0.000000   3.913200
                    }
                }
            }
        }
    }
}
MOTION
Frames: 4
Frame Time:   0.016667
  0.587700  89.309800  -3.531610   0.251435 -22.685500   8.650200  -0.757531  17.130400   6.643860  -3.982970  34.031500  14.582000   3.507120  -3.750290   0.228835   5.830480  -7.519310 -21.098100  -3.701520 -11.304000  -2.676920 -64.465200  30.016100 -15.099100  -2.923740 -11.308300 -17.892600  12.703000  -5.164150   1.963280  37.171200  27.572200 -54.277800 -31.894000   0.000409   0.002450 -10.947000   0.000651   0.002163 -28.826200   6.278790 -11.239500 -24.091100  -0.004524  -0.000600 -16.863800  -0.003620  -0.002675 -28.774700   0.093460  -0.170190 -41.094400   0.000488   0.000000 -27.368800   0.002092  -0.001653 -28.449200   0.092490  -0.170721 -35.594600   0.002092  -0.002905 -23.706000   0.002817  -0.000323 -33.229800   0.106317  -0.162468 -49.844900   0.001026   0.000874 -33.196700   0.002160  -0.003186   7.306560  -8.540800  11.460300  54.912400 -18.005300  66.904400 -31.192300 -24.430600  21.687100   3.275730 -70.698700  10.305800 -56.378800  34.051200  57.710200 -13.816500  -0.001837  -0.002553 -11.908300  -0.000793  -0.001294   6.277730  -0.240611  -2.238590   5.140080  -0.001924  -0.002221   3.598070  -0.008384  -0.001461   4.427120  -0.168288  -2.245410   4.430300  -0.000713   0.001873   2.950590  -0.011360  -0.002257  -1.334680   0.052235  -2.251430   0.000071  -0.001403   0.002954   0.007710  -0.003989  -0.001339   6.292120  -0.239035  -2.237320   9.445050   0.002405  -0.003571   6.290400   0.003502  -0.003175   2.585170  23.156200   6.048900   1.883620   0.483223  -2.863170  -1.756210  -1.496590   1.291750   0.000000   0.000000  -0.000000   4.521670  19.724400  -4.500080  -1.991320  11.433400 -11.856100   0.475414  -8.498460  -5.892050  -0.000000   0.000000  -0.000000
  0.587546  89.311800  -3.508650   0.264266 -22.668800   8.665630  -0.759504  17.123800   6.627560  -3.980160  34.019200  14.546300   3.501810  -3.742410   0.227934   5.819760  -7.503000 -21.093600  -3.700620 -11.284900  -2.677210 -64.475800  29.916200 -15.128300  -2.877810 -11.205800 -17.997100  12.718200  -5.171390   1.858170  37.206200  27.592600 -54.242300 -31.863200   0.000405   0.002627 -10.931600   0.000649   0.002094 -28.851100   6.279040 -11.230100 -24.110700  -0.004503  -0.000532 -16.877500  -0.003612  -0.002658 -28.776900   0.090219  -0.164273 -41.189700   0.000547   0.000000 -27.432300   0.002082  -0.001593 -28.451500   0.089283  -0.164785 -35.624000   0.002130  -0.002881 -23.725600   0.002812  -0.000282 -33.280000   0.102690  -0.156774 -49.920100   0.000988   0.000961 -33.246800   0.002109  -0.003167   7.266520  -8.534630  11.427300  54.791800 -18.029900  66.935800 -31.179500 -24.473500  21.627100   3.390900 -70.623300  10.371600 -56.510000  34.151100  57.767900 -13.793500  -0.002192  -0.002536 -11.896800  -0.001017  -0.001331   6.348010  -0.239982  -2.218070   5.197550  -0.002203  -0.002082   3.638300  -0.008702  -0.001343   4.462550  -0.167949  -2.224950   4.465740  -0.000884   0.002104   2.974180  -0.011476  -0.002063  -1.159520   0.045234  -2.230900   0.005917  -0.001562   0.002993   0.007771  -0.004235  -0.001312   6.331210  -0.238118  -2.214970   9.503400   0.002579  -0.003785   6.329280   0.003267  -0.002999   2.573770  23.168500   6.066680   1.874700   0.449640  -2.871870  -1.754640  -1.496360   1.276130   0.000000   0.000000  -0.000000   4.511380  19.727800  -4.477010  -2.001270  11.435600 -11.854500   0.493225  -8.524850  -5.940560   0.000000   0.000000   0.000000
  0.586473  89.312800  -3.486790   0.267331 -22.659800   8.669730  -0.757171  17.117000   6.611200  -3.968050  34.006900  14.509400   3.496990  -3.730440   0.227011   5.812700  -7.479450 -21.091900  -3.699200 -11.264800  -2.677220 -64.483600  29.844100 -15.175200  -2.830980 -11.131500 -18.112600  12.728100  -5.196020   1.756560  37.236100  27.619200 -54.195800 -31.832700   0.000403   0.002803 -10.916400   0.000645   0.002025 -28.880900   6.279390 -11.216000 -24.134800  -0.004484  -0.000465 -16.894400  -0.003603  -0.002641 -28.779500   0.083938  -0.152814 -41.290600   0.000607   0.000000 -27.499500   0.002071  -0.001533 -28.453900   0.083068  -0.153289 -35.654200   0.002168  -0.002857 -23.745700   0.002807  -0.000242 -33.335600   0.095646  -0.145763 -50.003500   0.000950   0.001049 -33.302300   0.002058  -0.003148   7.239090  -8.533040  11.393400  54.645900 -18.045100  66.953900 -31.150200 -24.507500  21.544900   3.428280 -70.538600  10.368000 -56.715800  34.287700  57.872500 -13.748000  -0.002538  -0.002467 -11.874000  -0.001234  -0.001347   6.385240  -0.239825  -2.205630   5.228020  -0.002501  -0.001896   3.659610  -0.009006  -0.001189   4.482420  -0.167900  -2.212530   4.485700  -0.001059   0.002310   2.987460  -0.011578  -0.001829  -0.989952   0.038355  -2.218330   0.011710  -0.001739   0.003014   0.007789  -0.004493  -0.001242   6.338560  -0.237750  -2.201250   9.514270   0.002746  -0.003898   6.336530   0.003026  -0.002797   2.560380  23.190000   6.093950   1.868180   0.415472  -2.877540  -1.753990  -1.496130   1.256390  -0.000000   0.000000   0.000000   4.503830  19.730500  -4.455330  -2.007820  11.443100 -11.853000   0.511010  -8.553400  -5.965580   0.000000   0.000000  -0.000000
  0.583802  89.313400  -3.465540   0.263040 -22.657100   8.662570  -0.750232  17.108100   6.595100  -3.945610  33.990900  14.471100   3.494170  -3.714220   0.226212   5.807310  -7.447050 -21.124200  -3.696010 -11.243600  -2.677300 -64.493000  29.825600 -15.238300  -2.786520 -11.115300 -18.240800  12.726900  -5.242020   1.683700  37.256800  27.658600 -54.184300 -31.801300   0.000403   0.002978 -10.900700   0.000633   0.001965 -28.917200   6.281450 -11.206500 -24.164300  -0.004463  -0.000403 -16.915000  -0.003597  -0.002624 -28.782000   0.075020  -0.136562 -41.390700   0.000665   0.000000 -27.566200   0.002061  -0.001472 -28.456200   0.074245  -0.136986 -35.680400   0.002205  -0.002833 -23.763200   0.002801  -0.000202 -33.387000   0.085609  -0.130189 -50.080600   0.000915   0.001136 -33.353700   0.002007  -0.003128   7.238910  -8.544440  11.369800  54.414400 -18.046600  66.942200 -31.137100 -24.527600  21.400500   3.137650 -70.391000  10.054900 -56.799100  34.351200  57.909400 -13.667800  -0.002972  -0.002337 -11.833900  -0.001488  -0.001343   6.375770  -0.242860  -2.213740   5.220510  -0.002817  -0.001651   3.654350  -0.009295  -0.001005   4.491170  -0.170415  -2.220650   4.494610  -0.001148   0.002536   2.993400  -0.011669  -0.001554  -0.851410   0.033218  -2.226630   0.005855  -0.001837   0.003021  -0.062288  -0.004759  -0.001135   6.327880  -0.240365  -2.212680   9.498070   0.002949  -0.003912   6.325730   0.002902  -0.002554   2.557050  23.215000   6.107450   1.863980   0.386721  -2.856510  -1.758590  -1.496540   1.228750  -0.000000   0.000000  -0.000000   4.499110  19.730100  -4.439880  -2.005750  11.457500 -11.852700   0.521576  -8.577960  -5.965370  -0.000000   0.000000  -0.000000
